<svg xmlns="http://www.w3.org/2000/svg" width="199.803" height="74.79" viewBox="0 0 199.803 74.79">
  <g id="LOGO" transform="translate(3401 550.894)">
    <path id="Trazado_299" data-name="Trazado 299" d="M447.642,905.62l6.038-3.127,5.643,10.041L466.03,894.1l-11.87,6.353-.788-1.4-5.694-10.063-5.732,10.056-.817,1.431L429.181,894.1l6.7,18.421,0,0c.563,2.839,5.2,4.913,11.216,4.913,3.7,0,7.148-.848,9.221-2.268l-.9-1.313c-1.818,1.246-4.929,1.99-8.321,1.99-5.706,0-9.682-2.059-9.682-3.907s3.977-3.908,9.682-3.908c3.336,0,6.419.725,8.248,1.941l.881-1.325c-2.08-1.382-5.492-2.207-9.129-2.207a17.487,17.487,0,0,0-8.874,2.028l3.382-5.955Zm15.631-8.095-4.228,11.623-4.1-7.308Zm-15.6-5.663,4.465,7.882.774,1.376-5.269,2.82-5.254-2.8.794-1.4Zm-11.5,17.3-4.234-11.639,8.4,4.335Z" transform="translate(-3748.457 -1439.878)" fill="#fff"/>
    <path id="Trazado_297" data-name="Trazado 297" d="M17.164,4.871a13.929,13.929,0,0,1-1.679-.08,3.213,3.213,0,0,1-1.12-.343,6.6,6.6,0,0,1-1.131-.811Q12.275,2.769,11.578,2A8.94,8.94,0,0,0,10.2.747,2.749,2.749,0,0,0,8.551.256,7.877,7.877,0,0,1,4.975-.486,6.671,6.671,0,0,1,2.587-2.451,8.256,8.256,0,0,1,1.251-5.159,10.727,10.727,0,0,1,.828-8.106a9.172,9.172,0,0,1,.491-2.913A8.643,8.643,0,0,1,2.8-13.727a7.426,7.426,0,0,1,2.5-1.988,7.828,7.828,0,0,1,3.541-.754,7.938,7.938,0,0,1,3.587.754,7.026,7.026,0,0,1,2.468,2,8.618,8.618,0,0,1,1.417,2.707,9.687,9.687,0,0,1,.457,2.9,8.814,8.814,0,0,1-.32,2.319,9.184,9.184,0,0,1-.96,2.262,7.99,7.99,0,0,1-1.611,1.942,7.528,7.528,0,0,1-2.25,1.359,6.775,6.775,0,0,1,1.177.091,3.519,3.519,0,0,1,1.017.354,4.97,4.97,0,0,1,1.1.834q.8.731,1.268,1.188t.765.7a1.709,1.709,0,0,0,.56.32,2.173,2.173,0,0,0,.628.08V4.871ZM9.007-1.412A3.286,3.286,0,0,0,11-1.994a4.231,4.231,0,0,0,1.279-1.519,7.712,7.712,0,0,0,.7-2.045,11.221,11.221,0,0,0,.217-2.159,14,14,0,0,0-.274-2.879,7.212,7.212,0,0,0-.845-2.25,4.107,4.107,0,0,0-1.451-1.462A3.872,3.872,0,0,0,8.551-14.8a3.308,3.308,0,0,0-1.988.628,4.306,4.306,0,0,0-1.268,1.554,7.842,7.842,0,0,0-.674,2.068A12.009,12.009,0,0,0,4.415-8.38,11.78,11.78,0,0,0,4.655-6.1,9.274,9.274,0,0,0,5.42-3.811,4.736,4.736,0,0,0,6.826-2.074,3.523,3.523,0,0,0,9.007-1.412Zm15.6-13.183a3.457,3.457,0,0,0-.868.137.924.924,0,0,0-.56.514,3.3,3.3,0,0,0-.194,1.337v6.283A7.61,7.61,0,0,0,23.3-3.959,3.835,3.835,0,0,0,24.121-2.5a2.958,2.958,0,0,0,1.165.765,4.463,4.463,0,0,0,1.337.251,3.87,3.87,0,0,0,2.148-.48,3.383,3.383,0,0,0,1.371-1.622,6.991,6.991,0,0,0,.48-2.787v-5.986q0-.617.023-1.188a8.347,8.347,0,0,1,.069-.868q-.366.023-.925.034t-.811.034V-16.1h5.3v1.508a3.457,3.457,0,0,0-.868.137.924.924,0,0,0-.56.514,3.3,3.3,0,0,0-.194,1.337V-6.9a10.16,10.16,0,0,1-.48,3.336,5.625,5.625,0,0,1-1.348,2.216A5.145,5.145,0,0,1,28.794-.121a8.2,8.2,0,0,1-2.536.377,8.146,8.146,0,0,1-3.2-.548,4.877,4.877,0,0,1-2.022-1.531,6.058,6.058,0,0,1-1.051-2.262,11.674,11.674,0,0,1-.308-2.742v-5.529q0-.617.034-1.188t.057-.868q-.366.023-.914.034t-.8.034V-16.1h6.557ZM43.736-5.616A2.466,2.466,0,0,0,43.439-7a1.3,1.3,0,0,0-.811-.537A4.453,4.453,0,0,0,41.5-7.626L40.9-7.6v3.747q0,.617-.023,1.165a8.174,8.174,0,0,1-.069.845h3.062A3.017,3.017,0,0,0,45.2-2.154a2.435,2.435,0,0,0,1.051-1.028,3.942,3.942,0,0,0,.411-1.953h1.485L48.031-.109H35.968V-1.617a3.385,3.385,0,0,0,.88-.137A.925.925,0,0,0,37.4-2.28a3.315,3.315,0,0,0,.194-1.325v-8.751q0-.617.034-1.188t.057-.868q-.366.023-.914.034t-.8.034V-16.1H47.392l.137,4.432H46.021a3.39,3.39,0,0,0-.434-1.9,2.112,2.112,0,0,0-1.074-.857,3.488,3.488,0,0,0-1.257-.194l-.823.023a2.4,2.4,0,0,0-.823.126.935.935,0,0,0-.525.548,3.516,3.516,0,0,0-.183,1.314V-9.18h2.673l-.091-1.988h1.759v5.552Zm14.257,0A2.466,2.466,0,0,0,57.7-7a1.3,1.3,0,0,0-.811-.537,4.453,4.453,0,0,0-1.131-.091L55.16-7.6v3.747q0,.617-.023,1.165a8.176,8.176,0,0,1-.069.845H58.13a3.017,3.017,0,0,0,1.325-.308,2.435,2.435,0,0,0,1.051-1.028,3.942,3.942,0,0,0,.411-1.953H62.4L62.288-.109H50.225V-1.617a3.385,3.385,0,0,0,.88-.137.925.925,0,0,0,.548-.525,3.315,3.315,0,0,0,.194-1.325v-8.751q0-.617.034-1.188t.057-.868q-.366.023-.914.034t-.8.034V-16.1H61.649l.137,4.432H60.278a3.39,3.39,0,0,0-.434-1.9,2.112,2.112,0,0,0-1.074-.857,3.488,3.488,0,0,0-1.257-.194l-.823.023a2.4,2.4,0,0,0-.823.126.935.935,0,0,0-.525.548,3.516,3.516,0,0,0-.183,1.314V-9.18h2.673l-.091-1.988H59.5v5.552ZM76.637.119,69.325-9.226q-.3-.388-.617-.823t-.64-.891h-.023l.046,7.083q0,.617-.023,1.188A8.354,8.354,0,0,1,68-1.8a9.214,9.214,0,0,1,.925-.057q.56-.011.788-.011V-.109H64.5V-1.617a3.385,3.385,0,0,0,.88-.137.925.925,0,0,0,.548-.525,3.315,3.315,0,0,0,.194-1.325l-.046-8.751q0-.617.023-1.188a8.347,8.347,0,0,1,.069-.868q-.366.023-.925.034t-.811.034V-16.1h3.587l6.991,8.819q.571.731.948,1.257t.651.914h.023v-7.243q0-.617.023-1.188t.046-.868q-.366.023-.914.034t-.8.034V-16.1H80.2v1.508a3.457,3.457,0,0,0-.868.137.924.924,0,0,0-.56.514,3.3,3.3,0,0,0-.194,1.337V.119Zm23.3-11.1a4.985,4.985,0,0,0-1.268-2.856,3.575,3.575,0,0,0-2.57-.982,3.887,3.887,0,0,0-2.079.548,4.579,4.579,0,0,0-1.474,1.462,6.885,6.885,0,0,0-.868,2.079,10.041,10.041,0,0,0-.286,2.4,10.043,10.043,0,0,0,.56,3.484A5.374,5.374,0,0,0,93.59-2.463a4.011,4.011,0,0,0,2.6.868,6.1,6.1,0,0,0,2.856-.743A6.8,6.8,0,0,0,101.426-4.4l1.1,1.005A9,9,0,0,1,100.17-1.08a7.792,7.792,0,0,1-2.41,1.062,9.413,9.413,0,0,1-2.113.274,7.913,7.913,0,0,1-3.2-.628,7.437,7.437,0,0,1-2.479-1.736,7.755,7.755,0,0,1-1.6-2.582,8.9,8.9,0,0,1-.56-3.187,9.832,9.832,0,0,1,.5-3.084,8.827,8.827,0,0,1,1.5-2.776,7.244,7.244,0,0,1,2.5-1.988,7.819,7.819,0,0,1,3.5-.743,7.57,7.57,0,0,1,1.953.286,8.1,8.1,0,0,1,2,.834l-.091-.96h1.759v5.324ZM102.66-.109V-1.686a1.439,1.439,0,0,0,1.028-.366,2.917,2.917,0,0,0,.651-.96q.263-.594.514-1.279l4.455-12.224h1.6l4.867,12.452q.137.343.366,1.04a5.551,5.551,0,0,1,.274,1.222q.388-.046.743-.057t.583-.011V-.109h-6.146V-1.617a1.167,1.167,0,0,0,.88-.263.952.952,0,0,0,.217-.72,3.248,3.248,0,0,0-.251-1.028l-.457-1.257-4.958.091-.366,1.074q-.114.3-.331.88t-.4.971a8.81,8.81,0,0,1,.88-.057q.514-.011.743-.011V-.109Zm4.935-6.4h3.816L110.36-9.363q-.3-.823-.525-1.656t-.343-1.474h-.023l-.274,1.165a17.1,17.1,0,0,1-.571,1.851Zm21.979-4.432a5.282,5.282,0,0,0-.343-2.045,2.564,2.564,0,0,0-.971-1.211,2.6,2.6,0,0,0-1.5-.377h-1.1V-3.856q0,.617-.023,1.188a8.349,8.349,0,0,1-.069.868q.388-.046.994-.057t.834-.011V-.109h-6.672V-1.617a3.385,3.385,0,0,0,.88-.137.925.925,0,0,0,.548-.525,3.316,3.316,0,0,0,.194-1.325V-14.549H121.3a2.648,2.648,0,0,0-2.056.891,4.082,4.082,0,0,0-.754,2.719h-1.508L117.1-16.1h13.846l.137,5.164Zm.777,10.83V-1.686a1.439,1.439,0,0,0,1.028-.366,2.916,2.916,0,0,0,.651-.96q.263-.594.514-1.279L137-16.514h1.6l4.867,12.452q.137.343.366,1.04a5.553,5.553,0,0,1,.274,1.222q.388-.046.743-.057t.583-.011V-.109h-6.146V-1.617a1.167,1.167,0,0,0,.88-.263.952.952,0,0,0,.217-.72,3.248,3.248,0,0,0-.251-1.028l-.457-1.257-4.958.091-.366,1.074q-.114.3-.331.88t-.4.971a8.811,8.811,0,0,1,.88-.057q.514-.011.743-.011V-.109Zm4.935-6.4H139.1l-1.051-2.856q-.3-.823-.525-1.656t-.343-1.474h-.023l-.274,1.165a17.1,17.1,0,0,1-.571,1.851Zm11.378,6.4V-1.617a3.385,3.385,0,0,0,.88-.137.925.925,0,0,0,.548-.525,3.315,3.315,0,0,0,.194-1.325v-8.751q0-.617.034-1.188t.057-.868q-.366.023-.914.034t-.8.034V-16.1h6.557v1.508a3.458,3.458,0,0,0-.868.137.924.924,0,0,0-.56.514,3.3,3.3,0,0,0-.194,1.337v8.751q0,.617-.023,1.165a8.193,8.193,0,0,1-.069.845h3.062a2.656,2.656,0,0,0,2.113-.948,4.322,4.322,0,0,0,.765-2.8h1.531l-.137,5.483Zm20.357-14.485a3.457,3.457,0,0,0-.868.137.924.924,0,0,0-.56.514,3.3,3.3,0,0,0-.194,1.337v8.751q0,.617-.023,1.188a8.354,8.354,0,0,1-.069.868,9.214,9.214,0,0,1,.925-.057q.56-.011.788-.011V-.109h-6.557V-1.617a3.385,3.385,0,0,0,.88-.137.925.925,0,0,0,.548-.525,3.315,3.315,0,0,0,.194-1.325v-8.751q0-.617.034-1.188t.057-.868q-.366.023-.914.034t-.8.034V-16.1h6.557ZM181.462.119,174.15-9.226q-.3-.388-.617-.823t-.64-.891h-.023l.046,7.083q0,.617-.023,1.188a8.35,8.35,0,0,1-.069.868,9.214,9.214,0,0,1,.925-.057q.56-.011.788-.011V-.109H169.33V-1.617a3.385,3.385,0,0,0,.88-.137.925.925,0,0,0,.548-.525,3.316,3.316,0,0,0,.194-1.325l-.046-8.751q0-.617.023-1.188a8.348,8.348,0,0,1,.069-.868q-.366.023-.925.034t-.811.034V-16.1h3.587l6.991,8.819q.571.731.948,1.257t.651.914h.023v-7.243q0-.617.023-1.188t.046-.868q-.366.023-.914.034t-.8.034V-16.1h5.209v1.508a3.458,3.458,0,0,0-.868.137.924.924,0,0,0-.56.514,3.3,3.3,0,0,0-.194,1.337V.119Zm4.09-.228V-1.686a1.439,1.439,0,0,0,1.028-.366,2.917,2.917,0,0,0,.651-.96q.263-.594.514-1.279L192.2-16.514h1.6l4.867,12.452q.137.343.366,1.04a5.551,5.551,0,0,1,.274,1.222q.388-.046.743-.057t.583-.011V-.109h-6.146V-1.617a1.167,1.167,0,0,0,.88-.263.952.952,0,0,0,.217-.72,3.248,3.248,0,0,0-.251-1.028l-.457-1.257-4.958.091-.366,1.074q-.114.3-.331.88t-.4.971a8.81,8.81,0,0,1,.88-.057q.514-.011.743-.011V-.109Zm4.935-6.4H194.3l-1.051-2.856q-.3-.823-.525-1.656t-.343-1.474h-.023l-.274,1.165a17.093,17.093,0,0,1-.571,1.851Z" transform="translate(-3401.828 -494.226)" fill="#fff"/>
    <path id="Trazado_298" data-name="Trazado 298" d="M.689-.633A1.069,1.069,0,0,0,1.3-.814a.734.734,0,0,0,.239-.465,4.937,4.937,0,0,0,.052-.788V-7.439q0-.284.013-.549t.026-.458l-.478.026-.465.026V-9.1q.762-.013,1.55-.019t1.6-.006A6.384,6.384,0,0,1,5.9-8.84a2.723,2.723,0,0,1,1.3.878,2.39,2.39,0,0,1,.471,1.479,2.833,2.833,0,0,1-.181,1.04,2.676,2.676,0,0,1-.659.994,3.391,3.391,0,0,1-1.259.743,5.992,5.992,0,0,1-2,.284q-.129.013-.291.013t-.329-.013V-1.8q0,.349-.006.626a3.611,3.611,0,0,1-.032.446l.387-.026q.207-.013.407-.019t.368-.019v.723H.689ZM2.962-4.107q.22.026.381.032t.381.006A2.878,2.878,0,0,0,5-4.34a2.018,2.018,0,0,0,.865-.788,2.34,2.34,0,0,0,.31-1.227,2.551,2.551,0,0,0-.187-1.04,1.6,1.6,0,0,0-.517-.659,2.123,2.123,0,0,0-.755-.342,3.826,3.826,0,0,0-.9-.1.862.862,0,0,0-.568.155.738.738,0,0,0-.232.452,4.591,4.591,0,0,0-.052.762ZM8.3-.607a.685.685,0,0,0,.542-.181.892.892,0,0,0,.187-.5q.032-.323.032-.749V-7.878q0-.22.006-.446T9.1-8.808q-.22.013-.465.019t-.439.019v-.684a5.777,5.777,0,0,0,.923-.058,2.572,2.572,0,0,0,.529-.136.857.857,0,0,0,.278-.168h.491v8.149q0,.232-.013.471t-.039.484q.207-.013.42-.019t.394-.019v.684H8.3Zm7.645.542q-.026-.207-.039-.362t-.039-.323a3.173,3.173,0,0,1-.943.665,2.528,2.528,0,0,1-1.046.226,1.934,1.934,0,0,1-1.4-.458A1.529,1.529,0,0,1,12-1.46a1.612,1.612,0,0,1,.349-1.033,2.611,2.611,0,0,1,.917-.717,5.119,5.119,0,0,1,1.24-.413,6.645,6.645,0,0,1,1.317-.136V-4.52a3.6,3.6,0,0,0-.077-.768,1.1,1.1,0,0,0-.316-.581,1.05,1.05,0,0,0-.743-.226,1.613,1.613,0,0,0-.672.123,1.027,1.027,0,0,0-.517.446.5.5,0,0,1,.136.239,1.092,1.092,0,0,1,.032.252.743.743,0,0,1-.155.407.57.57,0,0,1-.529.213.555.555,0,0,1-.471-.213.8.8,0,0,1-.161-.5,1.169,1.169,0,0,1,.342-.826,2.3,2.3,0,0,1,.936-.568,4.031,4.031,0,0,1,1.33-.207,2.179,2.179,0,0,1,1.659.581,2.6,2.6,0,0,1,.549,1.834v.891q0,.426-.006.852t-.006.9q0,.194-.013.439T17.1-.711l.452-.026q.232-.013.439-.013v.684Zm-.116-3.1a5.949,5.949,0,0,0-.846.116,3.04,3.04,0,0,0-.781.271,1.621,1.621,0,0,0-.562.465,1.108,1.108,0,0,0-.213.684.835.835,0,0,0,.291.646.988.988,0,0,0,.626.207,1.767,1.767,0,0,0,.8-.174,2.985,2.985,0,0,0,.684-.484q-.013-.142-.013-.291v-.316q0-.116.006-.433T15.824-3.164ZM21.584.142A3.75,3.75,0,0,1,20.46-.02,2.967,2.967,0,0,1,19.634-.4l.039.426h-.684L18.923-2.2h.542a1.633,1.633,0,0,0,.3.865,1.886,1.886,0,0,0,.7.607A2.039,2.039,0,0,0,21.4-.5a1.789,1.789,0,0,0,.581-.1,1.185,1.185,0,0,0,.478-.3.687.687,0,0,0,.194-.5.752.752,0,0,0-.2-.536,1.858,1.858,0,0,0-.542-.381q-.342-.168-.781-.336-.387-.155-.781-.323a4.105,4.105,0,0,1-.73-.4,1.729,1.729,0,0,1-.529-.575,1.7,1.7,0,0,1-.194-.846,2,2,0,0,1,.116-.639,1.838,1.838,0,0,1,.375-.633,1.925,1.925,0,0,1,.7-.478,2.769,2.769,0,0,1,1.085-.187,3.041,3.041,0,0,1,.781.116,2.325,2.325,0,0,1,.807.4l-.013-.452h.684v2.273h-.555a2.224,2.224,0,0,0-.239-.839,1.692,1.692,0,0,0-.562-.633,1.527,1.527,0,0,0-.878-.245,1.277,1.277,0,0,0-.82.252.771.771,0,0,0-.316.626.809.809,0,0,0,.239.607,2.065,2.065,0,0,0,.626.4q.387.168.839.336a10.162,10.162,0,0,1,1.02.478,2.391,2.391,0,0,1,.775.646,1.566,1.566,0,0,1,.3.981A1.729,1.729,0,0,1,23.527-.7a1.954,1.954,0,0,1-.846.639A2.928,2.928,0,0,1,21.584.142Zm5.785,0a2.557,2.557,0,0,1-.646-.084,1.424,1.424,0,0,1-.6-.336,1.648,1.648,0,0,1-.433-.73,4.215,4.215,0,0,1-.155-1.266L25.561-5.8h-.956v-.723a1.356,1.356,0,0,0,.71-.258,2.319,2.319,0,0,0,.633-.659,2.621,2.621,0,0,0,.375-.891h.607v1.808h1.989v.672l-1.989.026L26.9-2.377a3.894,3.894,0,0,0,.084.859,1.143,1.143,0,0,0,.284.568.742.742,0,0,0,.549.2,1.235,1.235,0,0,0,.613-.181,1.909,1.909,0,0,0,.6-.594l.439.387a3.484,3.484,0,0,1-.62.71,2.487,2.487,0,0,1-.594.381,2.026,2.026,0,0,1-.517.155A2.854,2.854,0,0,1,27.369.142Zm2.647-.749a.685.685,0,0,0,.542-.181.892.892,0,0,0,.187-.5q.032-.323.032-.749V-4.714q0-.22.013-.446t.039-.484q-.22.013-.465.019t-.452.019V-6.29a5.777,5.777,0,0,0,.923-.058,2.572,2.572,0,0,0,.529-.136.857.857,0,0,0,.278-.168h.491v4.985q0,.232-.013.471t-.039.484q.207-.013.42-.019T32.9-.749v.684h-2.88ZM31.4-7.839a.744.744,0,0,1-.568-.252A.871.871,0,0,1,30.6-8.7a.846.846,0,0,1,.245-.613A.757.757,0,0,1,31.4-9.57a.724.724,0,0,1,.562.252.886.886,0,0,1,.226.613.886.886,0,0,1-.226.613A.724.724,0,0,1,31.4-7.839ZM36.951.142a3.267,3.267,0,0,1-1.588-.394,2.973,2.973,0,0,1-1.156-1.13,3.459,3.459,0,0,1-.433-1.782A3.7,3.7,0,0,1,34.02-4.5a3.723,3.723,0,0,1,.691-1.143,3.264,3.264,0,0,1,1.059-.794,3.142,3.142,0,0,1,1.362-.291,3.3,3.3,0,0,1,1.3.232,2.045,2.045,0,0,1,.833.607,1.3,1.3,0,0,1,.291.814.858.858,0,0,1-.181.542.616.616,0,0,1-.517.232.558.558,0,0,1-.529-.226.831.831,0,0,1-.155-.446,1.062,1.062,0,0,1,.039-.265.634.634,0,0,1,.142-.265.741.741,0,0,0-.336-.4,1.443,1.443,0,0,0-.478-.168,2.727,2.727,0,0,0-.413-.039,1.677,1.677,0,0,0-1.324.678,2.993,2.993,0,0,0-.536,1.918,4.036,4.036,0,0,0,.239,1.433,2.305,2.305,0,0,0,.7,1.007,1.775,1.775,0,0,0,1.111.387,2.272,2.272,0,0,0,1.124-.3,2.674,2.674,0,0,0,.878-.768l.413.362a3.209,3.209,0,0,1-.859.917A3.332,3.332,0,0,1,37.9,0,3.455,3.455,0,0,1,36.951.142ZM49.3-6.315A3.284,3.284,0,0,0,48.961-7.5a2.193,2.193,0,0,0-.749-.846,2.037,2.037,0,0,0-1.188-.3,1.611,1.611,0,0,0-1.149.4,1.28,1.28,0,0,0-.426.969,1.28,1.28,0,0,0,.284.846,2.693,2.693,0,0,0,.768.613q.484.271,1.091.542.491.207.994.465a5.474,5.474,0,0,1,.917.588,2.517,2.517,0,0,1,.659.788,2.253,2.253,0,0,1,.245,1.078,2.294,2.294,0,0,1-.375,1.291,2.512,2.512,0,0,1-1.065.891A3.929,3.929,0,0,1,47.3.142a4.429,4.429,0,0,1-1.169-.168A4.267,4.267,0,0,1,45.01-.5l.065.542h-.788L44.235-2.8h.62a2.361,2.361,0,0,0,.807,1.7,2.58,2.58,0,0,0,1.685.575,2.141,2.141,0,0,0,.891-.181,1.5,1.5,0,0,0,.633-.517,1.349,1.349,0,0,0,.232-.788,1.305,1.305,0,0,0-.316-.891,2.8,2.8,0,0,0-.8-.62q-.484-.258-1.014-.491t-1.027-.491a4.919,4.919,0,0,1-.9-.594,2.508,2.508,0,0,1-.633-.794,2.356,2.356,0,0,1-.232-1.078,2.482,2.482,0,0,1,.129-.762,2.217,2.217,0,0,1,.439-.762,2.231,2.231,0,0,1,.846-.588,3.491,3.491,0,0,1,1.35-.226,4.944,4.944,0,0,1,1.1.142,3.092,3.092,0,0,1,1.117.5l-.052-.542h.775v2.893ZM54.114.142A2.37,2.37,0,0,1,52.919-.13a1.643,1.643,0,0,1-.7-.9,4.875,4.875,0,0,1-.232-1.659V-4.714q0-.22.006-.458a3.427,3.427,0,0,1,.045-.471q-.22.013-.465.019t-.439.019V-6.29h.31a3.036,3.036,0,0,0,.969-.116,1.256,1.256,0,0,0,.452-.245h.491v3.939a3.192,3.192,0,0,0,.284,1.524.984.984,0,0,0,.956.491,1.556,1.556,0,0,0,.846-.258,2.448,2.448,0,0,0,.665-.607V-4.624q0-.284.013-.536a4.278,4.278,0,0,1,.052-.484q-.232.013-.478.019t-.452.019V-6.29h.375a2.722,2.722,0,0,0,.891-.116,1.424,1.424,0,0,0,.465-.245h.491L57.446-1.9q0,.207-.013.562t-.039.626l.458-.026q.239-.013.446-.013v.684H56.245q-.026-.207-.045-.387T56.154-.8a4.39,4.39,0,0,1-.93.659A2.317,2.317,0,0,1,54.114.142ZM59.2-.607a.685.685,0,0,0,.542-.181.892.892,0,0,0,.187-.5q.032-.323.032-.749V-4.727q0-.207.006-.446a3.428,3.428,0,0,1,.045-.471q-.22.013-.465.019t-.452.019V-6.29h.439a2.278,2.278,0,0,0,.827-.116,1.27,1.27,0,0,0,.413-.245h.465q.026.181.039.5t.026.723a3.574,3.574,0,0,1,.568-.652,2.919,2.919,0,0,1,.7-.471,1.831,1.831,0,0,1,.794-.181,1.136,1.136,0,0,1,.691.213.8.8,0,0,1,.291.691.778.778,0,0,1-.071.3.712.712,0,0,1-.232.291.7.7,0,0,1-.433.123.707.707,0,0,1-.471-.207.664.664,0,0,1-.187-.529,1.19,1.19,0,0,0-.62.187,2.373,2.373,0,0,0-.575.5,3.309,3.309,0,0,0-.446.672v2.828q0,.232-.006.471a3.753,3.753,0,0,1-.045.484q.207-.013.426-.019t.4-.019v.684H59.2Zm8.717,4.042a5.456,5.456,0,0,1-1.827-.252,2.148,2.148,0,0,1-.994-.646,1.326,1.326,0,0,1-.142-1.479,1.79,1.79,0,0,1,.433-.523A2.142,2.142,0,0,1,65.995.18a1.475,1.475,0,0,1-.684-.407.953.953,0,0,1-.232-.652,1.276,1.276,0,0,1,.329-.814,1.663,1.663,0,0,1,.949-.542,2.221,2.221,0,0,1-.93-.749,2.024,2.024,0,0,1-.362-1.162A2.237,2.237,0,0,1,65.459-5.5a2.794,2.794,0,0,1,1.046-.9,2.928,2.928,0,0,1,1.337-.323,3.309,3.309,0,0,1,.826.11,2.517,2.517,0,0,1,.775.342,2.773,2.773,0,0,1,.375-.684,1.8,1.8,0,0,1,.549-.491,1.321,1.321,0,0,1,.665-.181.77.77,0,0,1,.568.194.7.7,0,0,1,.194.517.716.716,0,0,1-.058.252.563.563,0,0,1-.2.252.646.646,0,0,1-.387.1.556.556,0,0,1-.368-.136.567.567,0,0,1-.2-.329.677.677,0,0,0-.446.316,1.476,1.476,0,0,0-.226.536,2.1,2.1,0,0,1,.523.7,2.059,2.059,0,0,1,.187.872,2.233,2.233,0,0,1-.394,1.3,2.745,2.745,0,0,1-1.027.891,2.969,2.969,0,0,1-1.369.323,2.514,2.514,0,0,1-.413-.032,2.6,2.6,0,0,0-.426-.032,1.119,1.119,0,0,0-.678.194.425.425,0,0,0-.2.465q.065.284.542.375a10.343,10.343,0,0,0,1.382.129A7.512,7.512,0,0,1,69.746-.5a2.381,2.381,0,0,1,1.111.613,1.561,1.561,0,0,1,.394,1.124,1.6,1.6,0,0,1-.291.943,2.369,2.369,0,0,1-.775.691,4.047,4.047,0,0,1-1.078.42A5.093,5.093,0,0,1,67.919,3.435Zm.116-.633a2.882,2.882,0,0,0,1.621-.387,1.081,1.081,0,0,0,.575-.878A.77.77,0,0,0,69.946.9a1.805,1.805,0,0,0-.794-.323,7.206,7.206,0,0,0-1.195-.11q-.336-.026-.684-.039a4.819,4.819,0,0,1-.646-.065,1.459,1.459,0,0,0-.458.5,1.4,1.4,0,0,0-.174.62,1.1,1.1,0,0,0,.555.956A2.689,2.689,0,0,0,68.035,2.8Zm-.168-5.243a1.153,1.153,0,0,0,.73-.226,1.387,1.387,0,0,0,.439-.607,2.274,2.274,0,0,0,.149-.833,3.125,3.125,0,0,0-.155-.994,1.8,1.8,0,0,0-.452-.749,1.057,1.057,0,0,0-.762-.284,1.125,1.125,0,0,0-.981.5,2.08,2.08,0,0,0-.349,1.214A2.964,2.964,0,0,0,66.647-3.4a1.6,1.6,0,0,0,.471.7A1.132,1.132,0,0,0,67.867-2.441ZM75.1.142a3.147,3.147,0,0,1-1.621-.42,2.978,2.978,0,0,1-1.13-1.188,3.777,3.777,0,0,1-.413-1.814,3.634,3.634,0,0,1,.407-1.692,3.321,3.321,0,0,1,1.143-1.272,3.03,3.03,0,0,1,1.7-.484,3.112,3.112,0,0,1,1.027.168,2.418,2.418,0,0,1,.865.523,2.447,2.447,0,0,1,.6.917,3.75,3.75,0,0,1,.22,1.362l-4.442.077a5.573,5.573,0,0,0,.2,1.563,2.093,2.093,0,0,0,.652,1.059,1.781,1.781,0,0,0,1.175.375,2.5,2.5,0,0,0,.743-.123,2.982,2.982,0,0,0,.749-.355,2.391,2.391,0,0,0,.6-.555l.4.349a3.158,3.158,0,0,1-.891.91,3.463,3.463,0,0,1-1.027.465A3.856,3.856,0,0,1,75.1.142ZM73.511-4.352h2.983a2.707,2.707,0,0,0-.136-.885,1.358,1.358,0,0,0-.42-.626,1.1,1.1,0,0,0-.723-.232,1.534,1.534,0,0,0-1.124.433A2.308,2.308,0,0,0,73.511-4.352ZM78.986-.607a.685.685,0,0,0,.542-.181.892.892,0,0,0,.187-.5q.032-.323.032-.749V-4.727q0-.207.006-.446a3.428,3.428,0,0,1,.045-.471q-.22.013-.465.019t-.452.019V-6.29h.439a2.278,2.278,0,0,0,.826-.116,1.269,1.269,0,0,0,.413-.245h.465q.026.181.039.5t.026.723a3.573,3.573,0,0,1,.568-.652,2.919,2.919,0,0,1,.7-.471,1.831,1.831,0,0,1,.794-.181,1.136,1.136,0,0,1,.691.213.8.8,0,0,1,.291.691.778.778,0,0,1-.071.3.712.712,0,0,1-.232.291.7.7,0,0,1-.433.123.707.707,0,0,1-.471-.207.665.665,0,0,1-.187-.529,1.19,1.19,0,0,0-.62.187,2.373,2.373,0,0,0-.575.5,3.309,3.309,0,0,0-.446.672v2.828q0,.232-.006.471a3.753,3.753,0,0,1-.045.484q.207-.013.426-.019t.4-.019v.684H78.986Zm7.128,4.042a1.187,1.187,0,0,1-.73-.226.763.763,0,0,1-.3-.652.77.77,0,0,1,.174-.491.557.557,0,0,1,.458-.22.467.467,0,0,1,.446.194.767.767,0,0,1,.136.426v.077a.38.38,0,0,1-.013.09.162.162,0,0,0,.116.013.583.583,0,0,0,.31-.155,1.4,1.4,0,0,0,.31-.4,6.844,6.844,0,0,0,.349-.788q.194-.5.426-1.162L85.766-4.094a10.372,10.372,0,0,1-.484-1.13,4.519,4.519,0,0,1-.174-.639l-.62.026v-.684h2.854v.529h-.026q-.529.052-.575.4a1.87,1.87,0,0,0,.239.956L88.4-1.511q.245-.659.5-1.433t.523-1.588q.09-.245.187-.523a5.234,5.234,0,0,1,.207-.51,1.011,1.011,0,0,1,.213-.323l-.839.052v-.684h2.118v.529a1.293,1.293,0,0,0-.7.568,6.022,6.022,0,0,0-.484,1.046L88.5.167q-.375,1.072-.7,1.8a3.34,3.34,0,0,1-.717,1.1A1.374,1.374,0,0,1,86.114,3.435Zm16.31-9.66a2.854,2.854,0,0,0-.8-1.789,2.435,2.435,0,0,0-1.718-.639,2.636,2.636,0,0,0-1.24.3,2.968,2.968,0,0,0-.981.833,3.978,3.978,0,0,0-.639,1.266,5.369,5.369,0,0,0-.226,1.595,5,5,0,0,0,.413,2.086,3.354,3.354,0,0,0,1.143,1.414,2.851,2.851,0,0,0,1.659.5,3.691,3.691,0,0,0,1.634-.394,3.576,3.576,0,0,0,1.337-1.117l.426.362a4.766,4.766,0,0,1-1.24,1.227,4.094,4.094,0,0,1-1.311.575A5.368,5.368,0,0,1,99.7.142a4.477,4.477,0,0,1-1.782-.349,4.126,4.126,0,0,1-1.4-.975,4.384,4.384,0,0,1-.9-1.459,5.032,5.032,0,0,1-.316-1.8,5.636,5.636,0,0,1,.284-1.769,5.061,5.061,0,0,1,.839-1.569,3.982,3.982,0,0,1,1.4-1.117,4.436,4.436,0,0,1,1.969-.413,4.61,4.61,0,0,1,1.285.181,4.555,4.555,0,0,1,1.207.555l-.065-.646h.8v3Zm1.7,5.618a.685.685,0,0,0,.542-.181.892.892,0,0,0,.187-.5q.032-.323.032-.749V-7.878q0-.22.006-.446t.032-.484q-.22.013-.465.019t-.439.019v-.684a5.777,5.777,0,0,0,.923-.058,2.572,2.572,0,0,0,.529-.136.857.857,0,0,0,.278-.168h.491v8.149q0,.232-.013.471t-.039.484q.207-.013.42-.019t.394-.019v.684h-2.88Zm3.835,0a.685.685,0,0,0,.542-.181.892.892,0,0,0,.187-.5q.032-.323.032-.749V-4.714q0-.22.013-.446t.039-.484q-.22.013-.465.019t-.452.019V-6.29a5.777,5.777,0,0,0,.923-.058,2.572,2.572,0,0,0,.529-.136.856.856,0,0,0,.278-.168h.491v4.985q0,.232-.013.471t-.039.484q.207-.013.42-.019t.394-.019v.684h-2.88Zm1.382-7.232a.744.744,0,0,1-.568-.252.871.871,0,0,1-.232-.613.846.846,0,0,1,.245-.613.757.757,0,0,1,.555-.252.724.724,0,0,1,.562.252.886.886,0,0,1,.226.613.886.886,0,0,1-.226.613A.724.724,0,0,1,109.347-7.839Zm2.441,7.774V-.607a.685.685,0,0,0,.542-.181.892.892,0,0,0,.187-.5q.032-.323.032-.749l.013-2.686q0-.207.006-.446a3.428,3.428,0,0,1,.045-.471q-.232.013-.471.019t-.446.019V-6.29a5.527,5.527,0,0,0,.91-.058,2.269,2.269,0,0,0,.5-.136.877.877,0,0,0,.265-.168h.465q.013.116.019.22t.013.22q.006.116.019.3a3.881,3.881,0,0,1,.62-.413,3.728,3.728,0,0,1,.7-.291,2.462,2.462,0,0,1,.7-.11,1.918,1.918,0,0,1,1.659.7,3.725,3.725,0,0,1,.51,2.182v2.182q0,.232-.013.471t-.039.484q.207-.013.42-.019t.394-.019v.684h-2.88V-.607a.685.685,0,0,0,.542-.181.892.892,0,0,0,.187-.5q.032-.323.032-.749V-3.849a3.065,3.065,0,0,0-.329-1.537,1.074,1.074,0,0,0-1.014-.5,1.756,1.756,0,0,0-.814.207,2.369,2.369,0,0,0-.672.5v3.513q0,.232-.013.471t-.039.484q.207-.013.42-.019t.394-.019v.684Zm7.968-.542a.685.685,0,0,0,.542-.181.892.892,0,0,0,.187-.5q.032-.323.032-.749V-4.714q0-.22.013-.446t.039-.484q-.22.013-.465.019t-.452.019V-6.29a5.777,5.777,0,0,0,.923-.058,2.572,2.572,0,0,0,.529-.136.857.857,0,0,0,.278-.168h.491v4.985q0,.232-.013.471t-.039.484q.207-.013.42-.019t.394-.019v.684h-2.88Zm1.382-7.232a.744.744,0,0,1-.568-.252.871.871,0,0,1-.232-.613.846.846,0,0,1,.245-.613.757.757,0,0,1,.555-.252.724.724,0,0,1,.562.252.886.886,0,0,1,.226.613.886.886,0,0,1-.226.613A.724.724,0,0,1,121.137-7.839ZM126.69.142A3.267,3.267,0,0,1,125.1-.252a2.973,2.973,0,0,1-1.156-1.13,3.459,3.459,0,0,1-.433-1.782,3.7,3.7,0,0,1,.245-1.337,3.723,3.723,0,0,1,.691-1.143,3.264,3.264,0,0,1,1.059-.794,3.142,3.142,0,0,1,1.362-.291,3.3,3.3,0,0,1,1.3.232,2.045,2.045,0,0,1,.833.607,1.3,1.3,0,0,1,.291.814.858.858,0,0,1-.181.542.616.616,0,0,1-.517.232.558.558,0,0,1-.529-.226.831.831,0,0,1-.155-.446,1.062,1.062,0,0,1,.039-.265A.635.635,0,0,1,128.1-5.5a.741.741,0,0,0-.336-.4,1.443,1.443,0,0,0-.478-.168,2.727,2.727,0,0,0-.413-.039,1.677,1.677,0,0,0-1.324.678,2.993,2.993,0,0,0-.536,1.918,4.036,4.036,0,0,0,.239,1.433,2.305,2.305,0,0,0,.7,1.007,1.775,1.775,0,0,0,1.111.387,2.271,2.271,0,0,0,1.123-.3,2.674,2.674,0,0,0,.878-.768l.413.362a3.21,3.21,0,0,1-.859.917,3.332,3.332,0,0,1-.981.478A3.455,3.455,0,0,1,126.69.142Z" transform="translate(-3365.766 -479.539)" fill="#fff"/>
  </g>
</svg>
